<?xml version="1.0" encoding="utf-8"?>
<!-- Generator: Adobe Illustrator 21.0.0, SVG Export Plug-In . SVG Version: 6.00 Build 0)  -->
<svg version="1.1" xmlns="http://www.w3.org/2000/svg" xmlns:xlink="http://www.w3.org/1999/xlink" x="0px" y="0px"
	 viewBox="0 0 1196.6 238.3" style="enable-background:new 0 0 1196.6 238.3;" xml:space="preserve">
<style type="text/css">
	.Arched_x0020_Green{fill:url(#SVGID_1_);stroke:#FFFFFF;stroke-width:0.25;stroke-miterlimit:1;}
	.st0{fill:#1A171B;}
</style>
<linearGradient id="SVGID_1_" gradientUnits="userSpaceOnUse" x1="-104.6175" y1="863.1849" x2="-103.9104" y2="862.4778">
	<stop  offset="0" style="stop-color:#259E2E"/>
	<stop  offset="0.9831" style="stop-color:#1C381D"/>
</linearGradient>
<g id="Layer_1">
	<g>
		<path class="st0" d="M51,76.4c12.5,0,23.2,0.6,31.3,4.3c5.2,2.4,14.9,9,18.9,17.2c2.1,4.3,4.5,8.9,4.5,19s-1.5,18.8-7.2,27.6
			c-8.2,12.6-21.5,16.6-26.4,18.2c-14,4.8-40.5,2.8-41.7,2.7l1.6,71.4H0L0.7,77C0.7,77,44.3,76.4,51,76.4z M45.7,154.5
			c9.2-0.9,14.5-3.7,17.9-6.6c4.2-3.6,7.3-8,9.8-14.5c2.2-5.8,2.4-15.2,1.7-20.7c-1.2-8.2-5.8-15.8-9.1-18.7
			c-4.8-4.2-12-5.7-19.4-5.9c-8.1-0.2-15.8,1-15.8,1v64.7C30.8,153.8,39.9,155.1,45.7,154.5z"/>
		<path class="st0" d="M178.2,77.1H193c0,0,24,59.8,35.5,86.6s33.1,73.2,33.1,73.2h-35.4l-9.9-25.1l-9.7-24.6l-58-0.1
			c0,0-7.3,16.8-10.9,26.7c-3.6,9.9-7.7,23.1-7.7,23.1s-21.2,0-21.7,0c0,0,21.9-48.5,34.6-76.1C165.5,111.2,178.2,77.1,178.2,77.1z
			 M199.7,172.7l-21.8-55.8l-23.7,55.9c0,0,16.1,0.7,23.9,0.7C188.9,173.4,199.7,172.7,199.7,172.7z"/>
		<path class="st0" d="M298.5,77.1h11.2c0,0,38.9,40.8,63,64.8c29,28.8,47.5,45.4,47.5,45.4s-0.1-27.4-0.8-52.1s-2.1-58.1-2.1-58.1
			h19.7c0,0-1.5,49.8-1.8,77.2s-0.1,82.6-0.1,82.6h-9.8c0,0-36.6-38.5-60.6-62.2s-50.9-48.3-50.9-48.3s-0.4,36.6,0.3,63
			s2.4,47.5,2.4,47.5h-20c0,0,1.8-25,2.1-48S298.5,77.1,298.5,77.1z"/>
		<path class="st0" d="M556.5,77.1c17.1,0,41.5,3.9,50.1,9s20.6,14.1,26,23.2c6,10.3,11.8,23.7,11.8,43.4c0,18.5-4.1,33.5-9.8,43.8
			c-11.2,20.1-22.4,25.4-30.2,30.5c-13.9,9-33.9,9.6-44.2,9.9h-65.6c0,0,0.4-59.5,0.2-99.1s-1-60.7-1-60.7S539.4,77.1,556.5,77.1z
			 M524.9,223.5c1.8,0.3,26.5,1.5,35.5,1c10.7-0.6,25.1-6.9,33-15.9c5.3-6,18.4-20.5,18.6-57c0.1-21.5-10-36.8-14.9-43.4
			c-6.5-8.8-22.6-17.4-36.4-18.2c-13.8-0.8-35,0.5-35.5,0.5c0,0-1.5,39.2-1.6,62.7S524.9,223.5,524.9,223.5z"/>
		<g>
			<polygon class="st0" points="768,0 761.7,39.1 774.7,39.1 			"/>
			<polygon class="st0" points="729.4,3.5 741,41.1 754,39.7 			"/>
			<polygon class="st0" points="806.3,3.5 794.7,41.1 781.7,39.7 			"/>
			<ellipse class="st0" cx="768" cy="49.2" rx="5.5" ry="5.4"/>
			<ellipse class="st0" cx="785.3" cy="50.8" rx="5.5" ry="5.4"/>
			<ellipse class="st0" cx="750.5" cy="50.8" rx="5.5" ry="5.4"/>
			<path class="st0" d="M747.4,61.2l2.1,7.4c0,0,19.3-2.3,36,0.4l2.8-7.8C788.2,61.2,765.8,57.6,747.4,61.2z"/>
			<path class="st0" d="M680.6,155.5c0-21.6,8.9-45.7,24.4-58.5c15.2-12.6,32.3-21.9,62.7-21.9s51.9,10.3,64.4,21.9
				c16.9,15.6,22.7,34.8,22.7,58c0,20.1-5.8,32.8-10.9,43.3c-3.3,6.8-21.3,40.1-76.3,40.1c-54.9,0-72.7-31.2-77.6-39.4
				C684,188.4,680.6,177,680.6,155.5z M712.7,155.5c0,12.8,2,24.2,4.9,33.1c2.9,8.9,15.3,37.9,50.2,37.9s44.8-26.2,47.8-32.5
				c5.3-11.5,7.5-24.1,7.5-38.3c0-17.9-1.4-24.1-7.4-38c-7.1-16.6-21.6-30.9-47.9-30.9s-37.1,14.1-46.9,31
				C714.5,128.7,712.7,144.1,712.7,155.5z"/>
		</g>
		<path class="st0" d="M897.6,76.7c0,0,49,0,66.6,0c28.5,0,42.7,18.9,42.7,37.9c0,16.8-7.4,25.5-18,33.5c-8.1,6.1-21.4,9.1-22.6,9.2
			c0,0,16.4,24.5,26.9,38.9c10.5,14.4,31.1,40.7,31.1,40.7h-39.6c0,0-14.7-22.8-24.7-37.6c-10-14.8-27-38.8-27-38.8h-5.1l0.8,76.4
			h-31.8c0,0,1-40.1,1-70.8S897.6,76.7,897.6,76.7z M948.8,150c19.8-2.6,26.9-18.1,26.9-30s-2.4-23-13.5-28.9
			c-11.1-5.8-34.5-2-34.5-2l0.1,60.2C928,149.6,938.4,151.3,948.8,150z"/>
		<path class="st0" d="M1113.2,76.7h14.8c0,0,24,59.9,35.5,86.8s33.1,73.4,33.1,73.4h-35.4l-9.9-25.2l-9.7-24.6l-58-0.1
			c0,0-7.3,16.8-10.9,26.7s-7.7,23.2-7.7,23.2s-21.2,0-21.7,0c0,0,21.9-48.6,34.6-76.3C1100.5,110.9,1113.2,76.7,1113.2,76.7z
			 M1134.7,172.5l-21.8-56l-23.7,56.1c0,0,16.1,0.7,23.9,0.7C1123.9,173.2,1134.7,172.5,1134.7,172.5z"/>
	</g>
</g>
<g id="Livello_2">
</g>
<g id="Livello_3">
</g>
<g id="Livello_4">
</g>
</svg>
